<svg width="16" height="13" viewBox="0 0 16 13" fill="none" xmlns="http://www.w3.org/2000/svg">
<path d="M15.6875 4.55859C15.8125 4.46484 16 4.55859 16 4.71484V11.0898C16 11.9336 15.3125 12.5898 14.5 12.5898H1.5C0.65625 12.5898 0 11.9336 0 11.0898V4.71484C0 4.55859 0.15625 4.46484 0.28125 4.55859C1 5.12109 1.90625 5.80859 5.09375 8.12109C5.75 8.58984 6.875 9.62109 8 9.62109C9.09375 9.62109 10.25 8.58984 10.875 8.12109C14.0625 5.80859 14.9688 5.12109 15.6875 4.55859ZM8 8.58984C7.25 8.62109 6.21875 7.68359 5.6875 7.30859C1.53125 4.30859 1.21875 4.02734 0.28125 3.27734C0.09375 3.15234 0 2.93359 0 2.68359V2.08984C0 1.27734 0.65625 0.589844 1.5 0.589844H14.5C15.3125 0.589844 16 1.27734 16 2.08984V2.68359C16 2.93359 15.875 3.15234 15.6875 3.27734C14.75 4.02734 14.4375 4.30859 10.2812 7.30859C9.75 7.68359 8.71875 8.62109 8 8.58984Z" fill="#EFF5FF"/>
</svg>
