<svg width="35" height="36" viewBox="0 0 35 36" fill="none" xmlns="http://www.w3.org/2000/svg">
<rect x="0.5" y="1.08984" width="34" height="34" rx="17" stroke="white"/>
<path d="M23.9438 14.8398C23.9438 14.9961 23.9438 15.1211 23.9438 15.2773C23.9438 19.6211 20.6625 24.5898 14.6313 24.5898C12.7563 24.5898 11.0375 24.0586 9.6 23.1211C9.85 23.1523 10.1 23.1836 10.3813 23.1836C11.9125 23.1836 13.3188 22.6523 14.4438 21.7773C13.0063 21.7461 11.7875 20.8086 11.3813 19.4961C11.6 19.5273 11.7875 19.5586 12.0063 19.5586C12.2875 19.5586 12.6 19.4961 12.85 19.4336C11.35 19.1211 10.225 17.8086 10.225 16.2148V16.1836C10.6625 16.4336 11.1938 16.5586 11.725 16.5898C10.8188 15.9961 10.2563 14.9961 10.2563 13.8711C10.2563 13.2461 10.4125 12.6836 10.6938 12.2148C12.3188 14.1836 14.7563 15.4961 17.475 15.6523C17.4125 15.4023 17.3813 15.1523 17.3813 14.9023C17.3813 13.0898 18.85 11.6211 20.6625 11.6211C21.6 11.6211 22.4438 11.9961 23.0688 12.6523C23.7875 12.4961 24.5063 12.2148 25.1313 11.8398C24.8813 12.6211 24.3813 13.2461 23.6938 13.6523C24.35 13.5898 25.0063 13.4023 25.5688 13.1523C25.1313 13.8086 24.5688 14.3711 23.9438 14.8398Z" fill="#EFF5FF"/>
<a href="https://www.figma.com/design/pbfJMlSvrcqIHl140QhrYG/html.to.design-(Community)?node-id=1-348">
<rect fill="black" fill-opacity="0" x="0.1" y="-1.2" width="16" height="18.4"/>
</a>
</svg>
