<svg width="153" height="49" viewBox="0 0 153 49" fill="none" xmlns="http://www.w3.org/2000/svg">
<path d="M10 21.5625V18.4375C10 17.9688 10.3906 17.5 10.9375 17.5H14.0625C14.5312 17.5 15 17.9688 15 18.4375V21.5625C15 22.1094 14.5312 22.5 14.0625 22.5H10.9375C10.3906 22.5 10 22.1094 10 21.5625ZM20.9375 22.5C20.3906 22.5 20 22.1094 20 21.5625V18.4375C20 17.9688 20.3906 17.5 20.9375 17.5H24.0625C24.5312 17.5 25 17.9688 25 18.4375V21.5625C25 22.1094 24.5312 22.5 24.0625 22.5H20.9375ZM15 29.0625C15 29.6094 14.5312 30 14.0625 30H10.9375C10.3906 30 10 29.6094 10 29.0625V25.9375C10 25.4688 10.3906 25 10.9375 25H14.0625C14.5312 25 15 25.4688 15 25.9375V29.0625ZM20.9375 30C20.3906 30 20 29.6094 20 29.0625V25.9375C20 25.4688 20.3906 25 20.9375 25H24.0625C24.5312 25 25 25.4688 25 25.9375V29.0625C25 29.6094 24.5312 30 24.0625 30H20.9375ZM35 39.6875V42.5H0V39.6875C0 39.2188 0.390625 38.75 0.9375 38.75H2.42188V9.21875C2.42188 8.28125 3.28125 7.5 4.29688 7.5H11.25V4.375C11.25 3.35938 12.0312 2.5 13.125 2.5H21.875C22.8906 2.5 23.75 3.35938 23.75 4.375V7.5H30.625C31.6406 7.5 32.5 8.28125 32.5 9.21875V38.75H34.0625C34.5312 38.75 35 39.2188 35 39.6875ZM6.17188 38.6719H15V33.4375C15 32.9688 15.3906 32.5 15.9375 32.5H19.0625C19.5312 32.5 20 32.9688 20 33.4375V38.6719H28.75V11.25H23.75V13.125C23.75 14.2188 22.8906 15 21.875 15H13.125C12.0312 15 11.25 14.2188 11.25 13.125V11.25H6.17188V38.6719ZM20.7812 7.5H18.75V5.46875C18.75 5.23438 18.5156 5 18.2812 5H16.7188C16.4062 5 16.25 5.23438 16.25 5.46875V7.5H14.2188C13.9062 7.5 13.75 7.73438 13.75 7.96875V9.53125C13.75 9.84375 13.9062 10 14.2188 10H16.25V12.0312C16.25 12.3438 16.4062 12.5 16.7188 12.5H18.2812C18.5156 12.5 18.75 12.3438 18.75 12.0312V10H20.7812C21.0156 10 21.25 9.84375 21.25 9.53125V7.96875C21.25 7.73438 21.0156 7.5 20.7812 7.5Z" fill="#0463FA"/>
<a href="https://www.figma.com/design/pbfJMlSvrcqIHl140QhrYG/html.to.design-(Community)?node-id=1-2">
<rect fill="black" fill-opacity="0" y="-3" width="35" height="46"/>
</a>
<path d="M59.3984 9.5625V38H53.5391V9.5625H59.3984ZM76.4297 9.5625L65.1602 23.6055L58.6562 30.5977L57.6016 25.0508L61.9961 19.0352L69.2422 9.5625H76.4297ZM69.7695 38L61.3906 24.8555L65.7266 21.2227L76.7031 38H69.7695ZM84.5547 8V38H78.9102V8H84.5547ZM95.1406 16.8672V38H89.4961V16.8672H95.1406ZM89.1445 11.3594C89.1445 10.5391 89.431 9.86198 90.0039 9.32812C90.5768 8.79427 91.3451 8.52734 92.3086 8.52734C93.2591 8.52734 94.0208 8.79427 94.5938 9.32812C95.1797 9.86198 95.4727 10.5391 95.4727 11.3594C95.4727 12.1797 95.1797 12.8568 94.5938 13.3906C94.0208 13.9245 93.2591 14.1914 92.3086 14.1914C91.3451 14.1914 90.5768 13.9245 90.0039 13.3906C89.431 12.8568 89.1445 12.1797 89.1445 11.3594ZM105.297 21.3789V38H99.6719V16.8672H104.945L105.297 21.3789ZM104.477 26.6914H102.953C102.953 25.1289 103.155 23.7227 103.559 22.4727C103.962 21.2096 104.529 20.1354 105.258 19.25C105.987 18.3516 106.853 17.668 107.855 17.1992C108.871 16.7174 110.004 16.4766 111.254 16.4766C112.243 16.4766 113.148 16.6198 113.969 16.9062C114.789 17.1927 115.492 17.6484 116.078 18.2734C116.677 18.8984 117.133 19.7253 117.445 20.7539C117.771 21.7826 117.934 23.0391 117.934 24.5234V38H112.27V24.5039C112.27 23.5664 112.139 22.8372 111.879 22.3164C111.618 21.7956 111.234 21.431 110.727 21.2227C110.232 21.0013 109.62 20.8906 108.891 20.8906C108.135 20.8906 107.478 21.0404 106.918 21.3398C106.371 21.6393 105.915 22.056 105.551 22.5898C105.199 23.1107 104.932 23.7227 104.75 24.4258C104.568 25.1289 104.477 25.8841 104.477 26.6914ZM128.148 16.8672V38H122.504V16.8672H128.148ZM122.152 11.3594C122.152 10.5391 122.439 9.86198 123.012 9.32812C123.585 8.79427 124.353 8.52734 125.316 8.52734C126.267 8.52734 127.029 8.79427 127.602 9.32812C128.188 9.86198 128.48 10.5391 128.48 11.3594C128.48 12.1797 128.188 12.8568 127.602 13.3906C127.029 13.9245 126.267 14.1914 125.316 14.1914C124.353 14.1914 123.585 13.9245 123.012 13.3906C122.439 12.8568 122.152 12.1797 122.152 11.3594ZM138.422 7.98047V38H132.797V7.98047H138.422ZM151.742 16.8672L142.562 27.3359L137.641 32.3164L135.59 28.2539L139.496 23.293L144.984 16.8672H151.742ZM145.902 38L139.652 28.2344L143.539 24.8359L152.387 38H145.902Z" fill="#0463FA"/>
<a href="https://www.figma.com/design/pbfJMlSvrcqIHl140QhrYG/html.to.design-(Community)?node-id=1-2">
<rect fill="black" fill-opacity="0" y="0.5625" width="100.977" height="46.875"/>
</a>
</svg>
