<svg width="35" height="36" viewBox="0 0 35 36" fill="none" xmlns="http://www.w3.org/2000/svg">
<rect x="0.5" y="1.08984" width="34" height="34" rx="17" stroke="white"/>
<path d="M13.725 24.0898H10.8187V14.7461H13.725V24.0898ZM12.2562 13.4961C11.35 13.4961 10.6 12.7148 10.6 11.7773C10.6 10.8711 11.35 10.1211 12.2562 10.1211C13.1937 10.1211 13.9437 10.8711 13.9437 11.7773C13.9437 12.7148 13.1937 13.4961 12.2562 13.4961ZM24.5687 24.0898H21.6937V19.5586C21.6937 18.4648 21.6625 17.0898 20.1625 17.0898C18.6625 17.0898 18.4437 18.2461 18.4437 19.4648V24.0898H15.5375V14.7461H18.3187V16.0273H18.35C18.7562 15.3086 19.6937 14.5273 21.1 14.5273C24.0375 14.5273 24.6 16.4648 24.6 18.9648V24.0898H24.5687Z" fill="#EFF5FF"/>
<a href="https://www.figma.com/design/pbfJMlSvrcqIHl140QhrYG/html.to.design-(Community)?node-id=1-348">
<rect fill="black" fill-opacity="0" x="0.0999999" y="-1.2" width="14" height="18.4"/>
</a>
</svg>
