<svg width="35" height="36" viewBox="0 0 35 36" fill="none" xmlns="http://www.w3.org/2000/svg">
<rect x="0.5" y="1.08984" width="34" height="34" rx="17" stroke="white"/>
<path d="M25.7563 13.9961C26.1313 15.3086 26.1313 18.1211 26.1313 18.1211C26.1313 18.1211 26.1313 20.9023 25.7563 22.2461C25.5688 22.9961 24.975 23.5586 24.2563 23.7461C22.9125 24.0898 17.6 24.0898 17.6 24.0898C17.6 24.0898 12.2563 24.0898 10.9125 23.7461C10.1938 23.5586 9.6 22.9961 9.4125 22.2461C9.0375 20.9023 9.0375 18.1211 9.0375 18.1211C9.0375 18.1211 9.0375 15.3086 9.4125 13.9961C9.6 13.2461 10.1938 12.6523 10.9125 12.4648C12.2563 12.0898 17.6 12.0898 17.6 12.0898C17.6 12.0898 22.9125 12.0898 24.2563 12.4648C24.975 12.6523 25.5688 13.2461 25.7563 13.9961ZM15.85 20.6523L20.2875 18.1211L15.85 15.5898V20.6523Z" fill="#EFF5FF"/>
<a href="https://www.figma.com/design/pbfJMlSvrcqIHl140QhrYG/html.to.design-(Community)?node-id=1-348">
<rect fill="black" fill-opacity="0" x="0.1" y="-1.2" width="18" height="18.4"/>
</a>
</svg>
