<svg width="15" height="15" viewBox="0 0 15 15" fill="none" xmlns="http://www.w3.org/2000/svg">
<path d="M14.4523 10.1484C14.6711 10.2578 14.8352 10.5039 14.8352 10.7773C14.8352 10.8047 14.8352 10.8594 14.8352 10.9141L14.1789 13.7578C14.0969 14.0586 13.8508 14.25 13.55 14.25C6.52266 14.25 0.8625 8.58984 0.8625 1.5625C0.8625 1.26172 1.05391 1.01562 1.35469 0.933594L4.19844 0.277344C4.25313 0.277344 4.30781 0.25 4.33516 0.25C4.60859 0.25 4.85469 0.414062 4.96406 0.660156L6.27656 3.72266C6.30391 3.80469 6.33125 3.88672 6.33125 3.96875C6.33125 4.1875 6.22188 4.37891 6.08516 4.48828L4.41719 5.85547C5.42891 7.98828 7.12422 9.68359 9.25703 10.6953L10.6242 9.02734C10.7336 8.89062 10.925 8.78125 11.1164 8.78125C11.2258 8.78125 11.3078 8.80859 11.3898 8.83594L14.4523 10.1484Z" fill="#0463FA"/>
</svg>
