<svg width="15" height="15" viewBox="0 0 15 15" fill="none" xmlns="http://www.w3.org/2000/svg">
<path d="M7.16123 3.90625C9.12998 3.90625 10.755 5.53125 10.755 7.5C10.755 9.5 9.12998 11.0938 7.16123 11.0938C5.16123 11.0938 3.56748 9.5 3.56748 7.5C3.56748 5.53125 5.16123 3.90625 7.16123 3.90625ZM7.16123 9.84375C8.44248 9.84375 9.47373 8.8125 9.47373 7.5C9.47373 6.21875 8.44248 5.1875 7.16123 5.1875C5.84873 5.1875 4.81748 6.21875 4.81748 7.5C4.81748 8.8125 5.87998 9.84375 7.16123 9.84375ZM11.7237 3.78125C11.7237 4.25 11.3487 4.625 10.88 4.625C10.4112 4.625 10.0362 4.25 10.0362 3.78125C10.0362 3.3125 10.4112 2.9375 10.88 2.9375C11.3487 2.9375 11.7237 3.3125 11.7237 3.78125ZM14.0987 4.625C14.1612 5.78125 14.1612 9.25 14.0987 10.4062C14.0362 11.5312 13.7862 12.5 12.9737 13.3438C12.1612 14.1562 11.1612 14.4062 10.0362 14.4688C8.87998 14.5312 5.41123 14.5312 4.25498 14.4688C3.12998 14.4062 2.16123 14.1562 1.31748 13.3438C0.504981 12.5 0.254981 11.5312 0.192481 10.4062C0.129981 9.25 0.129981 5.78125 0.192481 4.625C0.254981 3.5 0.504981 2.5 1.31748 1.6875C2.16123 0.875 3.12998 0.625 4.25498 0.5625C5.41123 0.5 8.87998 0.5 10.0362 0.5625C11.1612 0.625 12.1612 0.875 12.9737 1.6875C13.7862 2.5 14.0362 3.5 14.0987 4.625ZM12.5987 11.625C12.9737 10.7188 12.88 8.53125 12.88 7.5C12.88 6.5 12.9737 4.3125 12.5987 3.375C12.3487 2.78125 11.88 2.28125 11.2862 2.0625C10.3487 1.6875 8.16123 1.78125 7.16123 1.78125C6.12998 1.78125 3.94248 1.6875 3.03623 2.0625C2.41123 2.3125 1.94248 2.78125 1.69248 3.375C1.31748 4.3125 1.41123 6.5 1.41123 7.5C1.41123 8.53125 1.31748 10.7188 1.69248 11.625C1.94248 12.25 2.41123 12.7188 3.03623 12.9688C3.94248 13.3438 6.12998 13.25 7.16123 13.25C8.16123 13.25 10.3487 13.3438 11.2862 12.9688C11.88 12.7188 12.38 12.25 12.5987 11.625Z" fill="#0463FA"/>
<a href="https://www.figma.com/design/pbfJMlSvrcqIHl140QhrYG/html.to.design-(Community)?node-id=1-2">
<rect fill="black" fill-opacity="0" x="0.18125" y="-1.2" width="14" height="18.4"/>
</a>
</svg>
