<svg width="12" height="17" viewBox="0 0 12 17" fill="none" xmlns="http://www.w3.org/2000/svg">
<path d="M5.375 16.2773C0.8125 9.71484 0 9.02734 0 6.58984C0 3.27734 2.65625 0.589844 6 0.589844C9.3125 0.589844 12 3.27734 12 6.58984C12 9.02734 11.1562 9.71484 6.59375 16.2773C6.3125 16.7148 5.65625 16.7148 5.375 16.2773ZM6 9.08984C7.375 9.08984 8.5 7.99609 8.5 6.58984C8.5 5.21484 7.375 4.08984 6 4.08984C4.59375 4.08984 3.5 5.21484 3.5 6.58984C3.5 7.99609 4.59375 9.08984 6 9.08984Z" fill="#EFF5FF"/>
</svg>
