<svg width="27" height="23" viewBox="0 0 27 23" fill="none" xmlns="http://www.w3.org/2000/svg">
<path d="M16.5 10.9375L17.5312 13H22.6406L14.0625 21.7656C13.7344 22.0938 13.2188 22.0938 12.8906 21.7656L4.3125 13H8.71875L10.125 9.67188L12.7969 15.5781C13.0781 16.1406 13.875 16.1875 14.1562 15.625L16.5 10.9375ZM23.6719 2.96875C25.9688 5.3125 26.0625 9.01562 24.0469 11.5H18.4688L17.1562 8.92188C16.875 8.35938 16.0781 8.35938 15.7969 8.92188L13.5 13.5156L10.7812 7.46875C10.5 6.85938 9.65625 6.85938 9.42188 7.46875L7.73438 11.5H2.95312C0.890625 9.01562 0.984375 5.3125 3.28125 2.96875L3.375 2.875C5.8125 0.390625 9.75 0.390625 12.1875 2.875L13.5 4.1875L14.7656 2.875C17.2031 0.390625 21.1406 0.390625 23.5781 2.875L23.6719 2.96875Z" fill="#0463FA"/>
</svg>
