<svg width="31" height="25" viewBox="0 0 31 25" fill="none" xmlns="http://www.w3.org/2000/svg">
<path d="M11.73 18.5C12.105 18.5 12.48 18.875 12.48 19.25C12.48 19.6719 12.105 20 11.73 20C11.3081 20 10.98 19.6719 10.98 19.25C10.98 18.875 11.3081 18.5 11.73 18.5ZM19.23 20C18.8081 20 18.48 19.6719 18.48 19.25C18.48 18.875 18.8081 18.5 19.23 18.5C19.605 18.5 19.98 18.875 19.98 19.25C19.98 19.6719 19.605 20 19.23 20ZM29.73 0.5C30.105 0.5 30.48 0.875 30.48 1.25V2.75C30.48 3.17188 30.105 3.5 29.73 3.5H1.22998C0.808105 3.5 0.47998 3.17188 0.47998 2.75V1.25C0.47998 0.875 0.808105 0.5 1.22998 0.5H29.73ZM29.73 21.5C30.105 21.5 30.48 21.875 30.48 22.25V23.75C30.48 24.1719 30.105 24.5 29.73 24.5H1.22998C0.808105 24.5 0.47998 24.1719 0.47998 23.75V22.25C0.47998 21.875 0.808105 21.5 1.22998 21.5H3.47998V5H27.48V21.5H29.73ZM22.98 12.125V11.375C22.98 11.1875 22.7925 11 22.605 11H16.23V9.5H21.105C21.2925 9.5 21.48 9.35938 21.48 9.125V8.375C21.48 8.1875 21.2925 8 21.105 8H16.23V6.875C16.23 6.6875 16.0425 6.5 15.855 6.5H15.105C14.8706 6.5 14.73 6.6875 14.73 6.875V8H9.85498C9.62061 8 9.47998 8.1875 9.47998 8.375V9.125C9.47998 9.35938 9.62061 9.5 9.85498 9.5H14.73V11H8.35498C8.12061 11 7.97998 11.1875 7.97998 11.375V12.125C7.97998 12.3594 8.12061 12.5 8.35498 12.5H14.73V14H9.85498C9.62061 14 9.47998 14.1875 9.47998 14.375V15.125C9.47998 15.3594 9.62061 15.5 9.85498 15.5H14.73V17H11.73C10.4644 17 9.47998 18.0312 9.47998 19.25C9.47998 20.5156 10.4644 21.5 11.73 21.5C12.9487 21.5 13.98 20.5156 13.98 19.25V18.5H16.98V19.25C16.98 20.5156 17.9644 21.5 19.23 21.5C20.4487 21.5 21.48 20.5156 21.48 19.25C21.48 18.0312 20.4487 17 19.23 17H16.23V15.5H21.105C21.2925 15.5 21.48 15.3594 21.48 15.125V14.375C21.48 14.1875 21.2925 14 21.105 14H16.23V12.5H22.605C22.7925 12.5 22.98 12.3594 22.98 12.125Z" fill="#0463FA"/>
</svg>
