<svg width="17" height="13" viewBox="0 0 17 13" fill="none" xmlns="http://www.w3.org/2000/svg">
<path d="M14.5175 3.25C14.5175 3.40625 14.5175 3.53125 14.5175 3.6875C14.5175 8.03125 11.2362 13 5.20498 13C3.32998 13 1.61123 12.4688 0.173731 11.5312C0.423731 11.5625 0.673731 11.5938 0.954981 11.5938C2.48623 11.5938 3.89248 11.0625 5.01748 10.1875C3.57998 10.1562 2.36123 9.21875 1.95498 7.90625C2.17373 7.9375 2.36123 7.96875 2.57998 7.96875C2.86123 7.96875 3.17373 7.90625 3.42373 7.84375C1.92373 7.53125 0.798731 6.21875 0.798731 4.625V4.59375C1.23623 4.84375 1.76748 4.96875 2.29873 5C1.39248 4.40625 0.829981 3.40625 0.829981 2.28125C0.829981 1.65625 0.986231 1.09375 1.26748 0.625C2.89248 2.59375 5.32998 3.90625 8.04873 4.0625C7.98623 3.8125 7.95498 3.5625 7.95498 3.3125C7.95498 1.5 9.42373 0.03125 11.2362 0.03125C12.1737 0.03125 13.0175 0.40625 13.6425 1.0625C14.3612 0.90625 15.08 0.625 15.705 0.25C15.455 1.03125 14.955 1.65625 14.2675 2.0625C14.9237 2 15.58 1.8125 16.1425 1.5625C15.705 2.21875 15.1425 2.78125 14.5175 3.25Z" fill="#0463FA"/>
<a href="https://www.figma.com/design/pbfJMlSvrcqIHl140QhrYG/html.to.design-(Community)?node-id=1-2">
<rect fill="black" fill-opacity="0" x="0.19375" y="-1.2" width="16" height="18.4"/>
</a>
</svg>
