<svg width="23" height="25" viewBox="0 0 23 25" fill="none" xmlns="http://www.w3.org/2000/svg">
<path d="M21.7456 4.84692C22.2612 6.7688 21.7925 8.6438 20.7612 10.0032C19.6831 11.5032 19.2144 13.2375 19.0737 15.0657C18.8394 17.2688 18.5581 19.4719 18.0894 21.6282L17.7144 23.2219C17.5737 23.8782 16.9644 24.3 16.3081 24.3C15.6519 24.3 15.0894 23.8782 14.9487 23.2219L13.3081 16.7532C13.1206 15.9094 12.3237 15.3 11.4331 15.3C10.5894 15.3 9.79248 15.9094 9.60498 16.7532L7.96436 23.2219C7.82373 23.8782 7.26123 24.3 6.60498 24.3C5.94873 24.3 5.33936 23.8782 5.19873 23.2219L4.82373 21.6282C4.35498 19.4719 4.07373 17.2688 3.83936 15.0657C3.69873 13.2375 3.22998 11.5032 2.15186 10.0032C1.12061 8.6438 0.651855 6.7688 1.16748 4.84692C1.68311 2.73755 3.37061 1.00317 5.47998 0.440674C6.55811 0.159424 7.63623 0.393799 8.57373 0.909424L13.3081 3.9563C13.6831 4.19067 14.105 4.05005 14.3394 3.72192C14.5737 3.3938 14.48 2.92505 14.105 2.69067L12.7925 1.84692C12.9331 1.75317 13.1206 1.7063 13.2612 1.56567C14.48 0.675049 15.9331 0.0656738 17.4331 0.440674C19.5425 1.00317 21.23 2.73755 21.7456 4.84692Z" fill="#0463FA"/>
</svg>
