<svg width="15" height="15" viewBox="0 0 15 15" fill="none" xmlns="http://www.w3.org/2000/svg">
<path d="M3.28623 14.5H0.379981V5.15625H3.28623V14.5ZM1.81748 3.90625C0.911231 3.90625 0.161231 3.125 0.161231 2.1875C0.161231 1.28125 0.911231 0.53125 1.81748 0.53125C2.75498 0.53125 3.50498 1.28125 3.50498 2.1875C3.50498 3.125 2.75498 3.90625 1.81748 3.90625ZM14.13 14.5H11.255V9.96875C11.255 8.875 11.2237 7.5 9.72373 7.5C8.22373 7.5 8.00498 8.65625 8.00498 9.875V14.5H5.09873V5.15625H7.87998V6.4375H7.91123C8.31748 5.71875 9.25498 4.9375 10.6612 4.9375C13.5987 4.9375 14.1612 6.875 14.1612 9.375V14.5H14.13Z" fill="#0463FA"/>
<a href="https://www.figma.com/design/pbfJMlSvrcqIHl140QhrYG/html.to.design-(Community)?node-id=1-2">
<rect fill="black" fill-opacity="0" x="0.18125" y="-1.2" width="14" height="18.4"/>
</a>
</svg>
