<svg width="17" height="15" viewBox="0 0 17 15" fill="none" xmlns="http://www.w3.org/2000/svg">
<path d="M8.5 0.590088C12.9062 0.590088 16.5 3.52759 16.5 7.09009C16.5 10.6838 12.9062 13.5901 8.5 13.5901C8.46875 13.5901 8.46875 13.5901 8.46875 13.5901C7.28125 13.5901 6.15625 13.4026 5.125 12.9963C4.375 13.6213 2.8125 14.5901 0.75 14.5901C0.59375 14.5901 0.5 14.4963 0.5 14.3401C0.5 14.2776 0.5 14.2151 0.5625 14.1838C0.5625 14.1526 1.875 12.7776 2.28125 11.1838C1.15625 10.0588 0.5 8.65259 0.5 7.09009C0.5 3.52759 4.0625 0.590088 8.5 0.590088ZM11.5 7.84009V6.34009C11.5 6.21509 11.375 6.09009 11.25 6.09009H9.5V4.34009C9.5 4.21509 9.375 4.09009 9.25 4.09009H7.75C7.59375 4.09009 7.5 4.21509 7.5 4.34009V6.09009H5.75C5.59375 6.09009 5.5 6.21509 5.5 6.34009V7.84009C5.5 7.99634 5.59375 8.09009 5.75 8.09009H7.5V9.84009C7.5 9.99634 7.59375 10.0901 7.75 10.0901H9.25C9.375 10.0901 9.5 9.99634 9.5 9.84009V8.09009H11.25C11.375 8.09009 11.5 7.99634 11.5 7.84009Z" fill="#0463FA"/>
</svg>
