<svg width="17" height="15" viewBox="0 0 17 15" fill="none" xmlns="http://www.w3.org/2000/svg">
<path d="M8.5 0.590088C12.9062 0.590088 16.5 4.18384 16.5 8.59009V10.0901C16.5 10.4963 16.25 10.8401 15.9375 10.9963L15.4688 11.2151C15.4062 13.0901 13.875 14.5901 12 14.5901H11.25C10.8125 14.5901 10.5 14.2776 10.5 13.8401V8.34009C10.5 7.93384 10.8125 7.59009 11.25 7.59009H12C12.9688 7.59009 13.8438 7.99634 14.5 8.65259V8.59009C14.5 5.30884 11.7812 2.59009 8.5 2.59009C5.1875 2.59009 2.5 5.30884 2.5 8.59009V8.65259C3.125 7.99634 4 7.59009 5 7.59009H5.75C6.15625 7.59009 6.5 7.93384 6.5 8.34009V13.8401C6.5 14.2776 6.15625 14.5901 5.75 14.5901H5C3.09375 14.5901 1.5625 13.0901 1.5 11.2151L1.03125 10.9963C0.71875 10.8401 0.5 10.4963 0.5 10.0901V8.59009C0.5 4.18384 4.0625 0.590088 8.5 0.590088Z" fill="#0463FA"/>
</svg>
