<svg width="15" height="15" viewBox="0 0 15 15" fill="none" xmlns="http://www.w3.org/2000/svg">
<path d="M7.72998 0.46875C11.4761 0.46875 14.5112 3.50391 14.5112 7.25C14.5112 10.9961 11.4761 14.0312 7.72998 14.0312C3.98389 14.0312 0.94873 10.9961 0.94873 7.25C0.94873 3.50391 3.98389 0.46875 7.72998 0.46875ZM7.72998 12.7188C10.7378 12.7188 13.1987 10.2852 13.1987 7.25C13.1987 4.24219 10.7378 1.78125 7.72998 1.78125C4.69482 1.78125 2.26123 4.24219 2.26123 7.25C2.26123 10.2852 4.69482 12.7188 7.72998 12.7188ZM9.39795 9.875L7.07373 8.17969C6.9917 8.125 6.96436 8.01562 6.96436 7.93359V3.42188C6.96436 3.25781 7.10107 3.09375 7.29248 3.09375H8.16748C8.33154 3.09375 8.49561 3.25781 8.49561 3.42188V7.30469L10.3003 8.64453C10.4644 8.75391 10.4917 8.94531 10.3823 9.10938L9.86279 9.79297C9.75342 9.95703 9.56201 9.98438 9.39795 9.875Z" fill="#0463FA"/>
</svg>
