<svg width="17" height="17" viewBox="0 0 17 17" fill="none" xmlns="http://www.w3.org/2000/svg">
<path d="M16.0312 11.9023C16.2812 12.0273 16.4688 12.3086 16.4688 12.6211C16.4688 12.6523 16.4688 12.7148 16.4688 12.7773L15.7188 16.0273C15.625 16.3711 15.3438 16.5898 15 16.5898C6.96875 16.5898 0.5 10.1211 0.5 2.08984C0.5 1.74609 0.71875 1.46484 1.0625 1.37109L4.3125 0.621094C4.375 0.621094 4.4375 0.589844 4.46875 0.589844C4.78125 0.589844 5.0625 0.777344 5.1875 1.05859L6.6875 4.55859C6.71875 4.65234 6.75 4.74609 6.75 4.83984C6.75 5.08984 6.625 5.30859 6.46875 5.43359L4.5625 6.99609C5.71875 9.43359 7.65625 11.3711 10.0938 12.5273L11.6562 10.6211C11.7812 10.4648 12 10.3398 12.2188 10.3398C12.3438 10.3398 12.4375 10.3711 12.5312 10.4023L16.0312 11.9023Z" fill="#0463FA"/>
</svg>
