<svg width="15" height="15" viewBox="0 0 15 15" fill="none" xmlns="http://www.w3.org/2000/svg">
<path d="M13.1813 6.09009C13.7125 6.09009 14.1813 6.55884 14.1813 7.09009V8.09009C14.1813 8.65259 13.7125 9.09009 13.1813 9.09009H8.68125V13.5901C8.68125 14.1526 8.2125 14.5901 7.68125 14.5901H6.68125C6.11875 14.5901 5.68125 14.1526 5.68125 13.5901V9.09009H1.18125C0.61875 9.09009 0.18125 8.65259 0.18125 8.09009V7.09009C0.18125 6.55884 0.61875 6.09009 1.18125 6.09009H5.68125V1.59009C5.68125 1.05884 6.11875 0.590088 6.68125 0.590088H7.68125C8.2125 0.590088 8.68125 1.05884 8.68125 1.59009V6.09009H13.1813Z" fill="#0463FA"/>
<a href="https://www.figma.com/design/pbfJMlSvrcqIHl140QhrYG/html.to.design-(Community)?node-id=1-348">
<rect fill="black" fill-opacity="0" x="0.18125" y="-1.2" width="14" height="18.4"/>
</a>
</svg>
