<svg width="15" height="17" viewBox="0 0 15 17" fill="none" xmlns="http://www.w3.org/2000/svg">
<path d="M7.5 8.59009C5.28125 8.59009 3.5 6.80884 3.5 4.59009C3.5 2.40259 5.28125 0.590088 7.5 0.590088C9.6875 0.590088 11.5 2.40259 11.5 4.59009C11.5 6.80884 9.6875 8.59009 7.5 8.59009ZM3.75 13.8401C3.75 13.4338 4.0625 13.0901 4.5 13.0901C4.90625 13.0901 5.25 13.4338 5.25 13.8401C5.25 14.2776 4.90625 14.5901 4.5 14.5901C4.0625 14.5901 3.75 14.2776 3.75 13.8401ZM10.5 9.62134C12.7188 9.74634 14.5 11.5588 14.5 13.8088V15.2151C14.5 15.9651 13.8438 16.5901 13.0938 16.5901H1.875C1.125 16.5901 0.5 15.9651 0.5 15.2151V13.8088C0.5 11.7151 2 9.99634 4 9.68384V12.1838C3.28125 12.4026 2.75 13.0588 2.75 13.8713C2.75 14.8088 3.53125 15.6213 4.5 15.6213C5.46875 15.6213 6.25 14.8088 6.25 13.8713C6.25 13.0588 5.71875 12.4026 5 12.1838V9.65259C5.21875 9.68384 5.46875 9.71509 5.6875 9.80884C6.25 9.99634 6.875 10.1213 7.5 10.1213C8.125 10.1213 8.71875 9.99634 9.28125 9.80884C9.34375 9.77759 9.40625 9.77759 9.5 9.74634V11.1526C8.34375 11.4026 7.5 12.4026 7.5 13.5901V14.9651C7.5 15.2151 7.6875 15.4338 7.90625 15.4651L8.90625 15.5901C9.03125 15.6213 9.15625 15.5276 9.1875 15.4026L9.28125 14.9026C9.3125 14.7776 9.21875 14.6526 9.09375 14.6213L8.5 14.4963V13.6526C8.5 11.5588 11.5 11.6526 11.5 13.5901V14.4963L10.875 14.6213C10.75 14.6526 10.6562 14.7776 10.6875 14.9026L10.7812 15.4026C10.8125 15.5276 10.9375 15.6213 11.0625 15.5901L12.0938 15.4026C12.3125 15.3401 12.5 15.1526 12.5 14.9026V13.5901C12.5 12.4026 11.625 11.3713 10.5 11.1526V9.62134Z" fill="#0463FA"/>
</svg>
