<svg width="16" height="17" viewBox="0 0 16 17" fill="none" xmlns="http://www.w3.org/2000/svg">
<path d="M15.5312 11.9023C15.7812 12.0273 15.9688 12.3086 15.9688 12.6211C15.9688 12.6523 15.9688 12.7148 15.9688 12.7773L15.2188 16.0273C15.125 16.3711 14.8438 16.5898 14.5 16.5898C6.46875 16.5898 0 10.1211 0 2.08984C0 1.74609 0.21875 1.46484 0.5625 1.37109L3.8125 0.621094C3.875 0.621094 3.9375 0.589844 3.96875 0.589844C4.28125 0.589844 4.5625 0.777344 4.6875 1.05859L6.1875 4.55859C6.21875 4.65234 6.25 4.74609 6.25 4.83984C6.25 5.08984 6.125 5.30859 5.96875 5.43359L4.0625 6.99609C5.21875 9.43359 7.15625 11.3711 9.59375 12.5273L11.1562 10.6211C11.2812 10.4648 11.5 10.3398 11.7188 10.3398C11.8438 10.3398 11.9375 10.3711 12.0312 10.4023L15.5312 11.9023Z" fill="#EFF5FF"/>
</svg>
