<svg width="28" height="25" viewBox="0 0 28 25" fill="none" xmlns="http://www.w3.org/2000/svg">
<path d="M10.72 0.5C12.3606 0.5 13.72 1.85938 13.72 3.5V21.125C13.72 23 12.1731 24.5 10.345 24.5C8.84497 24.5 7.57935 23.5625 7.15747 22.2031C6.96997 22.25 6.78247 22.25 6.59497 22.25C4.71997 22.25 3.21997 20.75 3.21997 18.875C3.21997 18.6875 3.21997 18.4531 3.26685 18.2188C1.90747 17.6562 0.969971 16.3438 0.969971 14.75C0.969971 13.3906 1.71997 12.1719 2.84497 11.5156C2.6106 11.0469 2.46997 10.4844 2.46997 9.875C2.46997 8.32812 3.40747 6.96875 4.76685 6.40625C4.71997 6.21875 4.71997 5.98438 4.71997 5.75C4.71997 4.10938 6.03247 2.75 7.71997 2.75C7.71997 2.75 7.76685 2.79688 7.81372 2.79688C8.14185 1.48438 9.31372 0.5 10.72 0.5ZM27.97 14.75C27.97 16.3438 26.9856 17.6562 25.6262 18.2188C25.6731 18.4531 25.72 18.6875 25.72 18.875C25.72 20.75 24.1731 22.25 22.345 22.25C22.1106 22.25 21.9231 22.25 21.7825 22.2031C21.3137 23.5625 20.0481 24.5 18.595 24.5C16.72 24.5 15.22 23 15.22 21.125V3.5C15.22 1.85938 16.5325 0.5 18.22 0.5C19.5793 0.5 20.7512 1.48438 21.0793 2.79688C21.1262 2.79688 21.1731 2.75 21.22 2.75C22.8606 2.75 24.22 4.10938 24.22 5.75C24.22 5.98438 24.1731 6.21875 24.1262 6.40625C25.4856 6.96875 26.47 8.32812 26.47 9.875C26.47 10.4844 26.2825 11.0469 26.0481 11.5156C27.1731 12.1719 27.97 13.3906 27.97 14.75Z" fill="#0463FA"/>
</svg>
