<svg width="31" height="25" viewBox="0 0 31 25" fill="none" xmlns="http://www.w3.org/2000/svg">
<path d="M3.84497 3.30005C3.6106 3.30005 3.46997 3.15942 3.46997 2.92505V0.675049C3.46997 0.487549 3.6106 0.300049 3.84497 0.300049H13.595C13.7825 0.300049 13.97 0.487549 13.97 0.675049V2.92505C13.97 3.15942 13.7825 3.30005 13.595 3.30005H12.47V14.55C12.47 16.6594 10.7825 18.3 8.71997 18.3C6.6106 18.3 4.96997 16.6594 4.96997 14.55V3.30005H3.84497ZM7.21997 3.30005V7.80005H10.22V3.30005H7.21997ZM29.72 21.3C30.095 21.3 30.47 21.675 30.47 22.05V23.55C30.47 23.9719 30.095 24.3 29.72 24.3H1.21997C0.798096 24.3 0.469971 23.9719 0.469971 23.55V22.05C0.469971 21.675 0.798096 21.3 1.21997 21.3H29.72ZM17.345 3.30005C17.1106 3.30005 16.97 3.15942 16.97 2.92505V0.675049C16.97 0.487549 17.1106 0.300049 17.345 0.300049H27.095C27.2825 0.300049 27.47 0.487549 27.47 0.675049V2.92505C27.47 3.15942 27.2825 3.30005 27.095 3.30005H25.97V14.55C25.97 16.6594 24.2825 18.3 22.22 18.3C20.1106 18.3 18.47 16.6594 18.47 14.55V3.30005H17.345ZM20.72 3.30005V7.80005H23.72V3.30005H20.72Z" fill="#0463FA"/>
</svg>
