<svg width="17" height="17" viewBox="0 0 17 17" fill="none" xmlns="http://www.w3.org/2000/svg">
<path d="M16.5 15.0898C16.5 15.9336 15.8125 16.5898 15 16.5898H2C1.15625 16.5898 0.5 15.9336 0.5 15.0898V6.87109C0.5 6.40234 0.71875 5.96484 1.0625 5.68359C1.84375 5.08984 2.46875 4.58984 6.1875 1.90234C6.71875 1.52734 7.75 0.589844 8.5 0.621094C9.21875 0.589844 10.25 1.52734 10.7812 1.90234C14.5 4.58984 15.125 5.08984 15.9062 5.68359C16.25 5.96484 16.5 6.40234 16.5 6.87109V15.0898ZM14.4375 8.96484C14.3438 8.83984 14.1875 8.80859 14.0625 8.90234C13.375 9.43359 12.3438 10.1836 10.7812 11.3086C10.25 11.6836 9.21875 12.6211 8.5 12.5898C7.75 12.6211 6.71875 11.6836 6.1875 11.3086C4.625 10.1836 3.59375 9.43359 2.90625 8.90234C2.78125 8.80859 2.625 8.83984 2.53125 8.96484L2.25 9.37109C2.21875 9.40234 2.21875 9.46484 2.21875 9.52734C2.21875 9.58984 2.25 9.68359 2.3125 9.71484C3.03125 10.2461 4.03125 10.9961 5.59375 12.1211C6.25 12.5898 7.375 13.6211 8.5 13.5898C9.59375 13.6211 10.7188 12.5898 11.375 12.1211C12.9375 10.9961 13.9375 10.2461 14.6562 9.71484C14.7188 9.68359 14.75 9.58984 14.75 9.52734C14.75 9.46484 14.75 9.40234 14.7188 9.37109L14.4375 8.96484Z" fill="#0463FA"/>
</svg>
