<svg width="25" height="25" viewBox="0 0 25 25" fill="none" xmlns="http://www.w3.org/2000/svg">
<path d="M23.75 18.3938L24.4062 19.7532C24.5938 20.1282 24.4531 20.55 24.0781 20.7375L20.9844 22.2844C20.2344 22.6594 19.3438 22.3313 18.9688 21.5813L16.0156 15.3H9.5C8.75 15.3 8.09375 14.7844 8 14.0344C6.40625 2.92505 6.5 3.62817 6.5 3.30005C6.5 1.61255 7.90625 0.253174 9.64062 0.346924C11.1875 0.393799 12.4531 1.65942 12.4531 3.25317C12.5 4.80005 11.375 6.06567 9.92188 6.30005L10.1562 7.84692H16.25C16.625 7.84692 17 8.17505 17 8.59692V10.0969C17 10.4719 16.625 10.8469 16.25 10.8469H10.5781L10.7656 12.3469H17C17.5625 12.3469 18.0781 12.675 18.3125 13.1907L21.0312 18.9094L22.7188 18.0657C23.0938 17.8782 23.5625 18.0188 23.75 18.3938ZM15.0781 16.8L16.2969 19.3782C14.9844 22.2844 12.0781 24.3 8.75 24.3C4.15625 24.3 0.5 20.6438 0.5 16.05C0.5 12.5813 2.60938 9.62817 5.65625 8.40942C5.79688 9.25317 5.9375 10.2844 6.125 11.5032C4.53125 12.4407 3.5 14.1282 3.5 16.05C3.5 18.9563 5.84375 21.3 8.75 21.3C11.375 21.3 13.5781 19.3782 13.9062 16.8H15.0781Z" fill="#0463FA"/>
</svg>
